<svg width="32" height="32" xmlns="http://www.w3.org/2000/svg" fill="current" stroke="stroke_color">

 <g>
  <title>background</title>
  <rect fill="none" id="canvas_background" height="402" width="582" y="-1" x="-1"/>
 </g>
 <g>
  <title>Layer 1</title>
  <path stroke-width='2%' stroke="null" id="svg_1" d="m31.623231,8.614536l-4.042411,-4.850396c-1.857324,-2.22856 -4.370174,-3.408386 -6.992278,-3.408386l-0.218509,0c-0.437017,0 -0.76478,0.262184 -0.983289,0.655459c-0.546272,1.179826 -1.529561,1.966377 -2.731358,1.966377s-2.185087,-0.786551 -2.840613,-1.966377c-0.218509,-0.393275 -0.546272,-0.655459 -0.874035,-0.655459l-0.218509,0c-2.731358,0 -5.244208,1.179826 -7.101532,3.408386l-4.042411,4.850396c-0.437017,0.524367 -0.437017,1.179826 -0.109254,1.704193l4.370174,6.554589c0.327763,0.262184 0.655526,0.524367 0.874035,0.524367c0.327763,0 0.655526,-0.131092 0.874035,-0.393275l1.420306,-1.704193l0,15.206645c0,0.786551 0.437017,1.310918 1.092543,1.310918l13.110521,0c0.655526,0 1.092543,-0.524367 1.092543,-1.310918l0,-15.206645l1.420306,1.704193c0.218509,0.262184 0.546272,0.393275 0.874035,0.393275c0.327763,0 0.546272,-0.262184 0.76478,-0.524367l4.370174,-6.554589c0.327763,-0.524367 0.327763,-1.179826 -0.109254,-1.704193z"/>
 </g>
</svg>